<svg width="150" height="50" viewBox="0 0 150 50" fill="none" xmlns="http://www.w3.org/2000/svg">
  <path d="M20.5 10C13.5964 10 8 15.5964 8 22.5C8 29.4036 13.5964 35 20.5 35H38.5C45.4036 35 51 29.4036 51 22.5C51 15.5964 45.4036 10 38.5 10H20.5Z" fill="#5c078c"/>
  <path d="M16.8 19.2H24.4V21.6H19.8V23.4H23.6V25.6H19.8V27.6H24.6V30H16.8V19.2Z" fill="white"/>
  <path d="M30.2 19.2H34.6C36.6667 19.2 38 20.4667 38 22.3333C38 24.2 36.6667 25.4667 34.6 25.4667H33.2V30H30.2V19.2ZM34.2 23.2667C34.8667 23.2667 35.2 22.9333 35.2 22.3333C35.2 21.7333 34.8667 21.4 34.2 21.4H33.2V23.2667H34.2Z" fill="white"/>
  <path d="M60 20L60 25.4L63.6 25.4L63.6 20L66.2 20L66.2 30L63.6 30L63.6 27.6L60 27.6L60 30L57.4 30L57.4 20L60 20Z" fill="#5c078c"/>
  <path d="M72.6 20L78.2 20L78.2 22.2L75.2 22.2L75.2 23.8L77.8 23.8L77.8 25.8L75.2 25.8L75.2 27.8L78.4 27.8L78.4 30L72.6 30L72.6 20Z" fill="#5c078c"/>
  <path d="M84.6 20L87.2 20L87.2 23.8L90.2 20L93.2 20L89.4 24.4L93.4 30L90.2 30L87.4 26L87.2 26.2L87.2 30L84.6 30L84.6 20Z" fill="#5c078c"/>
  <path d="M99.2 20L95.8 20L95.8 30L98.4 30L98.4 28.2L99.2 28.2C101.2 28.2 102.6 26.8 102.6 24.8C102.6 22.2 101.4 20 99.2 20ZM99 26L98.4 26L98.4 22.2L99 22.2C99.8 22.2 100 23.4 100 24.2C100 25 99.8 26 99 26Z" fill="#5c078c"/>
  <path d="M107.2 27.8L107.2 20L109.8 20L109.8 27.8L112.8 27.8L112.8 30L107.2 30L107.2 27.8Z" fill="#5c078c"/>
  <path d="M118.6 30L116 30L116 20L118.6 20L118.6 30Z" fill="#5c078c"/>
  <path d="M125.4 30L122.8 30L122.8 20L127.2 20C129.267 20 130.6 21.2667 130.6 23.1333C130.6 24.4 129.933 25.3333 128.8 25.8L130.8 30L128 30L126.4 26.2L125.4 26.2L125.4 30ZM125.4 24L126.8 24C127.467 24 127.8 23.6667 127.8 23.0667C127.8 22.4667 127.467 22.1333 126.8 22.1333L125.4 22.1333L125.4 24Z" fill="#5c078c"/>
  <path d="M136 20L141.6 20L141.6 22.2L138.6 22.2L138.6 23.8L141.2 23.8L141.2 25.8L138.6 25.8L138.6 27.8L141.8 27.8L141.8 30L136 30L136 20Z" fill="#5c078c"/>
</svg>